<mxfile host="app.diagrams.net" agent="Mozilla/5.0 (X11; Linux x86_64; rv:137.0) Gecko/20100101 Firefox/137.0" version="26.2.14">
  <diagram name="Σελίδα-1" id="3RsJ9J5DGzao-No5K9fa">
    <mxGraphModel dx="2030" dy="1864" grid="0" gridSize="10" guides="1" tooltips="1" connect="1" arrows="1" fold="1" page="1" pageScale="1" pageWidth="827" pageHeight="1169" math="0" shadow="0">
      <root>
        <mxCell id="0" />
        <mxCell id="1" parent="0" />
        <mxCell id="0CsIX5XTWQhmp2Wo3IE3-7" value="festival" style="swimlane;fontStyle=0;childLayout=stackLayout;horizontal=1;startSize=30;horizontalStack=0;resizeParent=1;resizeParentMax=0;resizeLast=0;collapsible=1;marginBottom=0;whiteSpace=wrap;html=1;" vertex="1" parent="1">
          <mxGeometry x="-83.5" y="46" width="97" height="96" as="geometry" />
        </mxCell>
        <mxCell id="0CsIX5XTWQhmp2Wo3IE3-8" value="&lt;font&gt;&lt;u&gt;festival_id&lt;/u&gt;&lt;/font&gt;&lt;br style=&quot;border-color: var(--border-color);&quot;&gt;&lt;span style=&quot;border-color: var(--border-color);&quot;&gt; &lt;span style=&quot;border-color: var(--border-color);&quot;&gt; &lt;/span&gt;&lt;/span&gt;&lt;span style=&quot;&quot;&gt;name&lt;/span&gt;&lt;br style=&quot;border-color: var(--border-color);&quot;&gt;begin_date&lt;br style=&quot;border-color: var(--border-color);&quot;&gt;end_date&lt;span style=&quot;&quot;&gt;&lt;br&gt;&lt;/span&gt;" style="text;strokeColor=none;fillColor=none;align=left;verticalAlign=middle;spacingLeft=4;spacingRight=4;overflow=hidden;points=[[0,0.5],[1,0.5]];portConstraint=eastwest;rotatable=0;whiteSpace=wrap;html=1;" vertex="1" parent="0CsIX5XTWQhmp2Wo3IE3-7">
          <mxGeometry y="30" width="97" height="66" as="geometry" />
        </mxCell>
        <mxCell id="0CsIX5XTWQhmp2Wo3IE3-9" value="festival_location" style="shape=rhombus;perimeter=rhombusPerimeter;whiteSpace=wrap;html=1;align=center;" vertex="1" parent="1">
          <mxGeometry x="-95" y="-99" width="120" height="60" as="geometry" />
        </mxCell>
        <mxCell id="0CsIX5XTWQhmp2Wo3IE3-10" value="location" style="swimlane;fontStyle=0;childLayout=stackLayout;horizontal=1;startSize=30;horizontalStack=0;resizeParent=1;resizeParentMax=0;resizeLast=0;collapsible=1;marginBottom=0;whiteSpace=wrap;html=1;" vertex="1" parent="1">
          <mxGeometry x="54" y="-142" width="130" height="126" as="geometry" />
        </mxCell>
        <mxCell id="0CsIX5XTWQhmp2Wo3IE3-11" value="&lt;u&gt;location_id&lt;/u&gt;&lt;br style=&quot;border-color: var(--border-color);&quot;&gt;&lt;span style=&quot;border-color: var(--border-color);&quot;&gt;address&lt;/span&gt;&lt;br style=&quot;border-color: var(--border-color);&quot;&gt;&lt;div&gt;longtitude&lt;/div&gt;&lt;div&gt;latitude&lt;/div&gt;&lt;div&gt;city&lt;/div&gt;&lt;div&gt;country&lt;/div&gt;&lt;div&gt;&lt;span style=&quot;&quot;&gt;&lt;/span&gt;&lt;/div&gt;" style="text;strokeColor=none;fillColor=none;align=left;verticalAlign=middle;spacingLeft=4;spacingRight=4;overflow=hidden;points=[[0,0.5],[1,0.5]];portConstraint=eastwest;rotatable=0;whiteSpace=wrap;html=1;" vertex="1" parent="0CsIX5XTWQhmp2Wo3IE3-10">
          <mxGeometry y="30" width="130" height="96" as="geometry" />
        </mxCell>
        <mxCell id="0CsIX5XTWQhmp2Wo3IE3-16" value="" style="endArrow=classic;html=1;rounded=0;entryX=0;entryY=0.448;entryDx=0;entryDy=0;exitX=1;exitY=0.5;exitDx=0;exitDy=0;entryPerimeter=0;" edge="1" parent="1" source="0CsIX5XTWQhmp2Wo3IE3-9" target="0CsIX5XTWQhmp2Wo3IE3-11">
          <mxGeometry width="50" height="50" relative="1" as="geometry">
            <mxPoint x="87" y="383" as="sourcePoint" />
            <mxPoint x="65" y="263" as="targetPoint" />
          </mxGeometry>
        </mxCell>
        <mxCell id="0CsIX5XTWQhmp2Wo3IE3-17" value="" style="endArrow=none;html=1;rounded=0;exitX=0.5;exitY=0;exitDx=0;exitDy=0;entryX=0.5;entryY=1;entryDx=0;entryDy=0;shape=link;" edge="1" parent="1" source="0CsIX5XTWQhmp2Wo3IE3-7" target="0CsIX5XTWQhmp2Wo3IE3-9">
          <mxGeometry width="50" height="50" relative="1" as="geometry">
            <mxPoint x="-136" y="316" as="sourcePoint" />
            <mxPoint x="-86" y="266" as="targetPoint" />
          </mxGeometry>
        </mxCell>
        <mxCell id="0CsIX5XTWQhmp2Wo3IE3-18" value="event" style="swimlane;fontStyle=0;childLayout=stackLayout;horizontal=1;startSize=30;horizontalStack=0;resizeParent=1;resizeParentMax=0;resizeLast=0;collapsible=1;marginBottom=0;whiteSpace=wrap;html=1;" vertex="1" parent="1">
          <mxGeometry x="-254" y="234" width="130" height="96" as="geometry" />
        </mxCell>
        <mxCell id="0CsIX5XTWQhmp2Wo3IE3-19" value="&lt;u&gt;event_id&lt;/u&gt;&lt;br style=&quot;border-color: var(--border-color);&quot;&gt;&lt;div&gt;&lt;span style=&quot;&quot;&gt;title&lt;/span&gt;&lt;/div&gt;&lt;div&gt;&lt;span style=&quot;&quot;&gt;date_time&lt;/span&gt;&lt;/div&gt;&lt;div&gt;&lt;span style=&quot;&quot;&gt;duration&lt;/span&gt;&lt;/div&gt;&lt;div&gt;&lt;span style=&quot;&quot;&gt;&lt;/span&gt;&lt;/div&gt;" style="text;strokeColor=none;fillColor=none;align=left;verticalAlign=middle;spacingLeft=4;spacingRight=4;overflow=hidden;points=[[0,0.5],[1,0.5]];portConstraint=eastwest;rotatable=0;whiteSpace=wrap;html=1;" vertex="1" parent="0CsIX5XTWQhmp2Wo3IE3-18">
          <mxGeometry y="30" width="130" height="66" as="geometry" />
        </mxCell>
        <mxCell id="0CsIX5XTWQhmp2Wo3IE3-20" value="belongs_to" style="shape=rhombus;perimeter=rhombusPerimeter;whiteSpace=wrap;html=1;align=center;" vertex="1" parent="1">
          <mxGeometry x="-97" y="213" width="120" height="60" as="geometry" />
        </mxCell>
        <mxCell id="0CsIX5XTWQhmp2Wo3IE3-21" value="" style="endArrow=classic;html=1;rounded=0;exitX=0.5;exitY=0;exitDx=0;exitDy=0;entryX=0.474;entryY=1.043;entryDx=0;entryDy=0;entryPerimeter=0;" edge="1" parent="1" source="0CsIX5XTWQhmp2Wo3IE3-20" target="0CsIX5XTWQhmp2Wo3IE3-8">
          <mxGeometry width="50" height="50" relative="1" as="geometry">
            <mxPoint x="1.2200000000002547" y="358.87" as="sourcePoint" />
            <mxPoint x="-32" y="206" as="targetPoint" />
          </mxGeometry>
        </mxCell>
        <mxCell id="0CsIX5XTWQhmp2Wo3IE3-22" value="" style="endArrow=none;html=1;rounded=0;exitX=1.001;exitY=0.097;exitDx=0;exitDy=0;entryX=0;entryY=0.5;entryDx=0;entryDy=0;shape=link;exitPerimeter=0;" edge="1" parent="1" target="0CsIX5XTWQhmp2Wo3IE3-20" source="0CsIX5XTWQhmp2Wo3IE3-18">
          <mxGeometry width="50" height="50" relative="1" as="geometry">
            <mxPoint x="-60" y="397" as="sourcePoint" />
            <mxPoint x="14" y="343" as="targetPoint" />
          </mxGeometry>
        </mxCell>
        <mxCell id="0CsIX5XTWQhmp2Wo3IE3-23" value="stage" style="swimlane;fontStyle=0;childLayout=stackLayout;horizontal=1;startSize=30;horizontalStack=0;resizeParent=1;resizeParentMax=0;resizeLast=0;collapsible=1;marginBottom=0;whiteSpace=wrap;html=1;" vertex="1" parent="1">
          <mxGeometry x="52" y="246" width="130" height="97" as="geometry" />
        </mxCell>
        <mxCell id="0CsIX5XTWQhmp2Wo3IE3-24" value="&lt;div&gt;&lt;u&gt;stage_id&lt;/u&gt;&lt;/div&gt;&lt;div&gt;name&lt;/div&gt;&lt;div&gt;description&lt;/div&gt;&lt;div&gt;capacity&lt;/div&gt;" style="text;strokeColor=none;fillColor=none;align=left;verticalAlign=middle;spacingLeft=4;spacingRight=4;overflow=hidden;points=[[0,0.5],[1,0.5]];portConstraint=eastwest;rotatable=0;whiteSpace=wrap;html=1;" vertex="1" parent="0CsIX5XTWQhmp2Wo3IE3-23">
          <mxGeometry y="30" width="130" height="67" as="geometry" />
        </mxCell>
        <mxCell id="0CsIX5XTWQhmp2Wo3IE3-25" value="hosted_at" style="shape=rhombus;perimeter=rhombusPerimeter;whiteSpace=wrap;html=1;align=center;" vertex="1" parent="1">
          <mxGeometry x="-97" y="280" width="120" height="60" as="geometry" />
        </mxCell>
        <mxCell id="0CsIX5XTWQhmp2Wo3IE3-26" value="&lt;div&gt;stage_location&lt;/div&gt;" style="shape=rhombus;perimeter=rhombusPerimeter;whiteSpace=wrap;html=1;align=center;" vertex="1" parent="1">
          <mxGeometry x="57" y="139" width="120" height="60" as="geometry" />
        </mxCell>
        <mxCell id="0CsIX5XTWQhmp2Wo3IE3-27" value="" style="endArrow=none;html=1;rounded=0;exitX=1.007;exitY=0.69;exitDx=0;exitDy=0;entryX=0;entryY=0.5;entryDx=0;entryDy=0;shape=link;exitPerimeter=0;" edge="1" parent="1" source="0CsIX5XTWQhmp2Wo3IE3-19" target="0CsIX5XTWQhmp2Wo3IE3-25">
          <mxGeometry width="50" height="50" relative="1" as="geometry">
            <mxPoint x="-114" y="330" as="sourcePoint" />
            <mxPoint x="-92" y="313" as="targetPoint" />
          </mxGeometry>
        </mxCell>
        <mxCell id="0CsIX5XTWQhmp2Wo3IE3-28" value="" style="endArrow=classic;html=1;rounded=0;exitX=1;exitY=0.5;exitDx=0;exitDy=0;entryX=0;entryY=0.5;entryDx=0;entryDy=0;" edge="1" parent="1" source="0CsIX5XTWQhmp2Wo3IE3-25" target="0CsIX5XTWQhmp2Wo3IE3-24">
          <mxGeometry width="50" height="50" relative="1" as="geometry">
            <mxPoint x="248" y="441" as="sourcePoint" />
            <mxPoint x="298" y="391" as="targetPoint" />
          </mxGeometry>
        </mxCell>
        <mxCell id="0CsIX5XTWQhmp2Wo3IE3-29" value="" style="endArrow=none;html=1;rounded=0;exitX=0.5;exitY=0;exitDx=0;exitDy=0;entryX=0.5;entryY=1;entryDx=0;entryDy=0;shape=link;" edge="1" parent="1" source="0CsIX5XTWQhmp2Wo3IE3-23" target="0CsIX5XTWQhmp2Wo3IE3-26">
          <mxGeometry width="50" height="50" relative="1" as="geometry">
            <mxPoint x="202" y="435.5" as="sourcePoint" />
            <mxPoint x="205" y="524.5" as="targetPoint" />
          </mxGeometry>
        </mxCell>
        <mxCell id="0CsIX5XTWQhmp2Wo3IE3-30" value="" style="endArrow=classic;html=1;rounded=0;entryX=0.483;entryY=1.034;entryDx=0;entryDy=0;entryPerimeter=0;exitX=0.5;exitY=0;exitDx=0;exitDy=0;" edge="1" parent="1" source="0CsIX5XTWQhmp2Wo3IE3-26" target="0CsIX5XTWQhmp2Wo3IE3-11">
          <mxGeometry width="50" height="50" relative="1" as="geometry">
            <mxPoint x="111" y="379" as="sourcePoint" />
            <mxPoint x="141" y="462" as="targetPoint" />
          </mxGeometry>
        </mxCell>
        <mxCell id="0CsIX5XTWQhmp2Wo3IE3-41" value="" style="shape=link;html=1;rounded=0;entryX=0.5;entryY=1;entryDx=0;entryDy=0;exitX=0.5;exitY=0;exitDx=0;exitDy=0;" edge="1" parent="1" source="0CsIX5XTWQhmp2Wo3IE3-33" target="0CsIX5XTWQhmp2Wo3IE3-36">
          <mxGeometry width="100" relative="1" as="geometry">
            <mxPoint x="49" y="621" as="sourcePoint" />
            <mxPoint x="149" y="621" as="targetPoint" />
          </mxGeometry>
        </mxCell>
        <mxCell id="0CsIX5XTWQhmp2Wo3IE3-42" value="" style="endArrow=classic;html=1;rounded=0;entryX=0.5;entryY=1;entryDx=0;entryDy=0;exitX=0.5;exitY=0;exitDx=0;exitDy=0;" edge="1" parent="1" source="0CsIX5XTWQhmp2Wo3IE3-36" target="0CsIX5XTWQhmp2Wo3IE3-23">
          <mxGeometry width="50" height="50" relative="1" as="geometry">
            <mxPoint x="74" y="646" as="sourcePoint" />
            <mxPoint x="124" y="596" as="targetPoint" />
          </mxGeometry>
        </mxCell>
        <mxCell id="0CsIX5XTWQhmp2Wo3IE3-44" value="personnel" style="swimlane;fontStyle=0;childLayout=stackLayout;horizontal=1;startSize=30;horizontalStack=0;resizeParent=1;resizeParentMax=0;resizeLast=0;collapsible=1;marginBottom=0;whiteSpace=wrap;html=1;" vertex="1" parent="1">
          <mxGeometry x="-253" y="449" width="130" height="108" as="geometry" />
        </mxCell>
        <mxCell id="0CsIX5XTWQhmp2Wo3IE3-45" value="&lt;u&gt;personnel_id&lt;/u&gt;&lt;br style=&quot;border-color: var(--border-color);&quot;&gt;&lt;div&gt;&lt;span style=&quot;&quot;&gt;first_name&lt;/span&gt;&lt;/div&gt;&lt;div&gt;&lt;span style=&quot;&quot;&gt;last_name&lt;/span&gt;&lt;/div&gt;&lt;div&gt;&lt;span style=&quot;&quot;&gt;birth_date&lt;/span&gt;&lt;/div&gt;&lt;div&gt;&lt;span style=&quot;&quot;&gt;email&lt;/span&gt;&lt;/div&gt;&lt;div&gt;&lt;span style=&quot;&quot;&gt;&lt;/span&gt;&lt;/div&gt;" style="text;strokeColor=none;fillColor=none;align=left;verticalAlign=middle;spacingLeft=4;spacingRight=4;overflow=hidden;points=[[0,0.5],[1,0.5]];portConstraint=eastwest;rotatable=0;whiteSpace=wrap;html=1;" vertex="1" parent="0CsIX5XTWQhmp2Wo3IE3-44">
          <mxGeometry y="30" width="130" height="78" as="geometry" />
        </mxCell>
        <mxCell id="0CsIX5XTWQhmp2Wo3IE3-46" value="location_continent" style="shape=rhombus;perimeter=rhombusPerimeter;whiteSpace=wrap;html=1;align=center;" vertex="1" parent="1">
          <mxGeometry x="59" y="-242" width="120" height="60" as="geometry" />
        </mxCell>
        <mxCell id="0CsIX5XTWQhmp2Wo3IE3-47" value="continent" style="swimlane;fontStyle=0;childLayout=stackLayout;horizontal=1;startSize=30;horizontalStack=0;resizeParent=1;resizeParentMax=0;resizeLast=0;collapsible=1;marginBottom=0;whiteSpace=wrap;html=1;" vertex="1" parent="1">
          <mxGeometry x="-129" y="-248" width="130" height="66" as="geometry" />
        </mxCell>
        <mxCell id="0CsIX5XTWQhmp2Wo3IE3-48" value="&lt;div&gt;&lt;u&gt;continent_id&lt;/u&gt;&lt;/div&gt;&lt;div&gt;name&lt;/div&gt;" style="text;strokeColor=none;fillColor=none;align=left;verticalAlign=middle;spacingLeft=4;spacingRight=4;overflow=hidden;points=[[0,0.5],[1,0.5]];portConstraint=eastwest;rotatable=0;whiteSpace=wrap;html=1;" vertex="1" parent="0CsIX5XTWQhmp2Wo3IE3-47">
          <mxGeometry y="30" width="130" height="36" as="geometry" />
        </mxCell>
        <mxCell id="0CsIX5XTWQhmp2Wo3IE3-49" value="" style="endArrow=classic;html=1;rounded=0;entryX=1.017;entryY=0.182;entryDx=0;entryDy=0;exitX=0;exitY=0.5;exitDx=0;exitDy=0;entryPerimeter=0;" edge="1" parent="1" source="0CsIX5XTWQhmp2Wo3IE3-46" target="0CsIX5XTWQhmp2Wo3IE3-48">
          <mxGeometry width="50" height="50" relative="1" as="geometry">
            <mxPoint x="98" y="-56" as="sourcePoint" />
            <mxPoint x="76" y="-176" as="targetPoint" />
          </mxGeometry>
        </mxCell>
        <mxCell id="0CsIX5XTWQhmp2Wo3IE3-50" value="" style="endArrow=none;html=1;rounded=0;exitX=0.5;exitY=0;exitDx=0;exitDy=0;entryX=0.5;entryY=1;entryDx=0;entryDy=0;shape=link;" edge="1" parent="1" target="0CsIX5XTWQhmp2Wo3IE3-46" source="0CsIX5XTWQhmp2Wo3IE3-10">
          <mxGeometry width="50" height="50" relative="1" as="geometry">
            <mxPoint x="293" y="411" as="sourcePoint" />
            <mxPoint x="367" y="357" as="targetPoint" />
          </mxGeometry>
        </mxCell>
        <mxCell id="0CsIX5XTWQhmp2Wo3IE3-51" value="has_job" style="shape=rhombus;perimeter=rhombusPerimeter;whiteSpace=wrap;html=1;align=center;" vertex="1" parent="1">
          <mxGeometry x="-103" y="488" width="120" height="60" as="geometry" />
        </mxCell>
        <mxCell id="0CsIX5XTWQhmp2Wo3IE3-52" value="job" style="swimlane;fontStyle=0;childLayout=stackLayout;horizontal=1;startSize=30;horizontalStack=0;resizeParent=1;resizeParentMax=0;resizeLast=0;collapsible=1;marginBottom=0;whiteSpace=wrap;html=1;" vertex="1" parent="1">
          <mxGeometry x="-72.5" y="383" width="59" height="66" as="geometry" />
        </mxCell>
        <mxCell id="0CsIX5XTWQhmp2Wo3IE3-53" value="&lt;div&gt;&lt;u&gt;job_id&lt;/u&gt;&lt;/div&gt;&lt;div&gt;name&lt;/div&gt;" style="text;strokeColor=none;fillColor=none;align=left;verticalAlign=middle;spacingLeft=4;spacingRight=4;overflow=hidden;points=[[0,0.5],[1,0.5]];portConstraint=eastwest;rotatable=0;whiteSpace=wrap;html=1;" vertex="1" parent="0CsIX5XTWQhmp2Wo3IE3-52">
          <mxGeometry y="30" width="59" height="36" as="geometry" />
        </mxCell>
        <mxCell id="0CsIX5XTWQhmp2Wo3IE3-54" value="" style="endArrow=classic;html=1;rounded=0;entryX=0.5;entryY=1.043;entryDx=0;entryDy=0;exitX=0.5;exitY=0;exitDx=0;exitDy=0;entryPerimeter=0;" edge="1" parent="1" source="0CsIX5XTWQhmp2Wo3IE3-51" target="0CsIX5XTWQhmp2Wo3IE3-53">
          <mxGeometry width="50" height="50" relative="1" as="geometry">
            <mxPoint x="-207" y="629" as="sourcePoint" />
            <mxPoint x="-229" y="509" as="targetPoint" />
          </mxGeometry>
        </mxCell>
        <mxCell id="0CsIX5XTWQhmp2Wo3IE3-55" value="" style="endArrow=none;html=1;rounded=0;exitX=1;exitY=0.5;exitDx=0;exitDy=0;entryX=0;entryY=0.5;entryDx=0;entryDy=0;shape=link;" edge="1" parent="1" target="0CsIX5XTWQhmp2Wo3IE3-51" source="0CsIX5XTWQhmp2Wo3IE3-45">
          <mxGeometry width="50" height="50" relative="1" as="geometry">
            <mxPoint x="-490" y="671" as="sourcePoint" />
            <mxPoint x="-380" y="626" as="targetPoint" />
          </mxGeometry>
        </mxCell>
        <mxCell id="0CsIX5XTWQhmp2Wo3IE3-56" value="has_experience" style="shape=rhombus;perimeter=rhombusPerimeter;whiteSpace=wrap;html=1;align=center;" vertex="1" parent="1">
          <mxGeometry x="-248" y="594" width="120" height="60" as="geometry" />
        </mxCell>
        <mxCell id="0CsIX5XTWQhmp2Wo3IE3-57" value="experience" style="swimlane;fontStyle=0;childLayout=stackLayout;horizontal=1;startSize=30;horizontalStack=0;resizeParent=1;resizeParentMax=0;resizeLast=0;collapsible=1;marginBottom=0;whiteSpace=wrap;html=1;" vertex="1" parent="1">
          <mxGeometry x="-95" y="576" width="130" height="66" as="geometry" />
        </mxCell>
        <mxCell id="0CsIX5XTWQhmp2Wo3IE3-58" value="&lt;div&gt;&lt;u&gt;experience_id&lt;/u&gt;&lt;/div&gt;&lt;div&gt;name&lt;/div&gt;" style="text;strokeColor=none;fillColor=none;align=left;verticalAlign=middle;spacingLeft=4;spacingRight=4;overflow=hidden;points=[[0,0.5],[1,0.5]];portConstraint=eastwest;rotatable=0;whiteSpace=wrap;html=1;" vertex="1" parent="0CsIX5XTWQhmp2Wo3IE3-57">
          <mxGeometry y="30" width="130" height="36" as="geometry" />
        </mxCell>
        <mxCell id="0CsIX5XTWQhmp2Wo3IE3-59" value="" style="endArrow=classic;html=1;rounded=0;entryX=0;entryY=0.5;entryDx=0;entryDy=0;exitX=1;exitY=0.5;exitDx=0;exitDy=0;" edge="1" parent="1" source="0CsIX5XTWQhmp2Wo3IE3-56" target="0CsIX5XTWQhmp2Wo3IE3-58">
          <mxGeometry width="50" height="50" relative="1" as="geometry">
            <mxPoint x="-208" y="783" as="sourcePoint" />
            <mxPoint x="-230" y="663" as="targetPoint" />
          </mxGeometry>
        </mxCell>
        <mxCell id="0CsIX5XTWQhmp2Wo3IE3-60" value="" style="endArrow=none;html=1;rounded=0;entryX=0.5;entryY=0;entryDx=0;entryDy=0;shape=link;exitX=0.5;exitY=1;exitDx=0;exitDy=0;" edge="1" parent="1" target="0CsIX5XTWQhmp2Wo3IE3-56" source="0CsIX5XTWQhmp2Wo3IE3-44">
          <mxGeometry width="50" height="50" relative="1" as="geometry">
            <mxPoint x="-419" y="651" as="sourcePoint" />
            <mxPoint x="-381" y="780" as="targetPoint" />
          </mxGeometry>
        </mxCell>
        <mxCell id="0CsIX5XTWQhmp2Wo3IE3-61" value="" style="group" vertex="1" connectable="0" parent="1">
          <mxGeometry x="49" y="451" width="134" height="59" as="geometry" />
        </mxCell>
        <mxCell id="0CsIX5XTWQhmp2Wo3IE3-31" value="stage_equipement" style="swimlane;fontStyle=0;childLayout=stackLayout;horizontal=1;startSize=30;horizontalStack=0;resizeParent=1;resizeParentMax=0;resizeLast=0;collapsible=1;marginBottom=0;whiteSpace=wrap;html=1;strokeColor=default;perimeterSpacing=1;" vertex="1" parent="0CsIX5XTWQhmp2Wo3IE3-61">
          <mxGeometry x="2" y="2" width="130" height="55" as="geometry" />
        </mxCell>
        <mxCell id="0CsIX5XTWQhmp2Wo3IE3-32" value="equipment" style="text;strokeColor=none;fillColor=none;align=left;verticalAlign=middle;spacingLeft=4;spacingRight=4;overflow=hidden;points=[[0,0.5],[1,0.5]];portConstraint=eastwest;rotatable=0;whiteSpace=wrap;html=1;" vertex="1" parent="0CsIX5XTWQhmp2Wo3IE3-31">
          <mxGeometry y="30" width="130" height="25" as="geometry" />
        </mxCell>
        <mxCell id="0CsIX5XTWQhmp2Wo3IE3-33" value="" style="swimlane;startSize=0;" vertex="1" parent="0CsIX5XTWQhmp2Wo3IE3-61">
          <mxGeometry width="134" height="59" as="geometry" />
        </mxCell>
        <mxCell id="0CsIX5XTWQhmp2Wo3IE3-39" value="" style="endArrow=none;dashed=1;html=1;rounded=0;" edge="1" parent="0CsIX5XTWQhmp2Wo3IE3-33">
          <mxGeometry width="50" height="50" relative="1" as="geometry">
            <mxPoint x="8" y="54.26999999999998" as="sourcePoint" />
            <mxPoint x="67" y="54" as="targetPoint" />
          </mxGeometry>
        </mxCell>
        <mxCell id="0CsIX5XTWQhmp2Wo3IE3-62" value="" style="group" vertex="1" connectable="0" parent="1">
          <mxGeometry x="52" y="373" width="128" height="64" as="geometry" />
        </mxCell>
        <mxCell id="0CsIX5XTWQhmp2Wo3IE3-43" value="" style="rhombus;whiteSpace=wrap;html=1;fillColor=none;" vertex="1" parent="0CsIX5XTWQhmp2Wo3IE3-62">
          <mxGeometry width="128" height="64" as="geometry" />
        </mxCell>
        <mxCell id="0CsIX5XTWQhmp2Wo3IE3-36" value="&lt;div&gt;has_equiped&lt;/div&gt;" style="shape=rhombus;perimeter=rhombusPerimeter;whiteSpace=wrap;html=1;align=center;" vertex="1" parent="0CsIX5XTWQhmp2Wo3IE3-62">
          <mxGeometry x="4" y="2" width="120" height="60" as="geometry" />
        </mxCell>
        <mxCell id="0CsIX5XTWQhmp2Wo3IE3-63" value="assigned_to" style="shape=rhombus;perimeter=rhombusPerimeter;whiteSpace=wrap;html=1;align=center;" vertex="1" parent="1">
          <mxGeometry x="-248" y="364" width="120" height="60" as="geometry" />
        </mxCell>
        <mxCell id="0CsIX5XTWQhmp2Wo3IE3-65" value="" style="endArrow=none;html=1;rounded=0;entryX=0.507;entryY=1.03;entryDx=0;entryDy=0;exitX=0.5;exitY=0;exitDx=0;exitDy=0;entryPerimeter=0;" edge="1" parent="1" source="0CsIX5XTWQhmp2Wo3IE3-63" target="0CsIX5XTWQhmp2Wo3IE3-19">
          <mxGeometry width="50" height="50" relative="1" as="geometry">
            <mxPoint x="-171" y="457" as="sourcePoint" />
            <mxPoint x="-121" y="407" as="targetPoint" />
          </mxGeometry>
        </mxCell>
        <mxCell id="0CsIX5XTWQhmp2Wo3IE3-66" value="" style="endArrow=none;html=1;rounded=0;entryX=0.5;entryY=0;entryDx=0;entryDy=0;exitX=0.5;exitY=1;exitDx=0;exitDy=0;" edge="1" parent="1" source="0CsIX5XTWQhmp2Wo3IE3-63" target="0CsIX5XTWQhmp2Wo3IE3-44">
          <mxGeometry width="50" height="50" relative="1" as="geometry">
            <mxPoint x="-339" y="290" as="sourcePoint" />
            <mxPoint x="-276" y="290" as="targetPoint" />
          </mxGeometry>
        </mxCell>
        <mxCell id="0CsIX5XTWQhmp2Wo3IE3-67" value="performance" style="swimlane;fontStyle=0;childLayout=stackLayout;horizontal=1;startSize=30;horizontalStack=0;resizeParent=1;resizeParentMax=0;resizeLast=0;collapsible=1;marginBottom=0;whiteSpace=wrap;html=1;" vertex="1" parent="1">
          <mxGeometry x="-418" y="159" width="130" height="80" as="geometry" />
        </mxCell>
        <mxCell id="0CsIX5XTWQhmp2Wo3IE3-68" value="&lt;div&gt;&lt;u&gt;performance_id&lt;/u&gt;&lt;/div&gt;&lt;div&gt;date_time&lt;/div&gt;&lt;div&gt;duration&lt;/div&gt;&lt;div&gt;&lt;br&gt;&lt;/div&gt;" style="text;strokeColor=none;fillColor=none;align=left;verticalAlign=middle;spacingLeft=4;spacingRight=4;overflow=hidden;points=[[0,0.5],[1,0.5]];portConstraint=eastwest;rotatable=0;whiteSpace=wrap;html=1;" vertex="1" parent="0CsIX5XTWQhmp2Wo3IE3-67">
          <mxGeometry y="30" width="130" height="50" as="geometry" />
        </mxCell>
        <mxCell id="0CsIX5XTWQhmp2Wo3IE3-69" value="part_of" style="shape=rhombus;perimeter=rhombusPerimeter;whiteSpace=wrap;html=1;align=center;" vertex="1" parent="1">
          <mxGeometry x="-249" y="144" width="120" height="60" as="geometry" />
        </mxCell>
        <mxCell id="0CsIX5XTWQhmp2Wo3IE3-70" value="" style="endArrow=classic;html=1;rounded=0;exitX=0.5;exitY=1;exitDx=0;exitDy=0;entryX=0.5;entryY=0;entryDx=0;entryDy=0;" edge="1" parent="1" source="0CsIX5XTWQhmp2Wo3IE3-69" target="0CsIX5XTWQhmp2Wo3IE3-18">
          <mxGeometry width="50" height="50" relative="1" as="geometry">
            <mxPoint x="-497" y="403" as="sourcePoint" />
            <mxPoint x="-447" y="353" as="targetPoint" />
          </mxGeometry>
        </mxCell>
        <mxCell id="0CsIX5XTWQhmp2Wo3IE3-71" value="" style="shape=link;html=1;rounded=0;exitX=1;exitY=0.5;exitDx=0;exitDy=0;entryX=0;entryY=0.5;entryDx=0;entryDy=0;" edge="1" parent="1" target="0CsIX5XTWQhmp2Wo3IE3-69">
          <mxGeometry width="100" relative="1" as="geometry">
            <mxPoint x="-288" y="174" as="sourcePoint" />
            <mxPoint x="-422" y="378" as="targetPoint" />
          </mxGeometry>
        </mxCell>
        <mxCell id="0CsIX5XTWQhmp2Wo3IE3-72" value="of_type" style="shape=rhombus;perimeter=rhombusPerimeter;whiteSpace=wrap;html=1;align=center;" vertex="1" parent="1">
          <mxGeometry x="-566" y="149" width="120" height="60" as="geometry" />
        </mxCell>
        <mxCell id="0CsIX5XTWQhmp2Wo3IE3-73" value="" style="shape=link;html=1;rounded=0;exitX=0;exitY=0.25;exitDx=0;exitDy=0;entryX=1;entryY=0.5;entryDx=0;entryDy=0;" edge="1" parent="1" source="0CsIX5XTWQhmp2Wo3IE3-67" target="0CsIX5XTWQhmp2Wo3IE3-72">
          <mxGeometry width="100" relative="1" as="geometry">
            <mxPoint x="-505" y="336" as="sourcePoint" />
            <mxPoint x="-508" y="358" as="targetPoint" />
          </mxGeometry>
        </mxCell>
        <mxCell id="0CsIX5XTWQhmp2Wo3IE3-74" value="performance_type" style="swimlane;fontStyle=0;childLayout=stackLayout;horizontal=1;startSize=30;horizontalStack=0;resizeParent=1;resizeParentMax=0;resizeLast=0;collapsible=1;marginBottom=0;whiteSpace=wrap;html=1;" vertex="1" parent="1">
          <mxGeometry x="-727" y="142" width="130" height="67" as="geometry" />
        </mxCell>
        <mxCell id="0CsIX5XTWQhmp2Wo3IE3-75" value="&lt;div&gt;&lt;u&gt;performance_type_id&lt;/u&gt;&lt;/div&gt;name" style="text;strokeColor=none;fillColor=none;align=left;verticalAlign=middle;spacingLeft=4;spacingRight=4;overflow=hidden;points=[[0,0.5],[1,0.5]];portConstraint=eastwest;rotatable=0;whiteSpace=wrap;html=1;" vertex="1" parent="0CsIX5XTWQhmp2Wo3IE3-74">
          <mxGeometry y="30" width="130" height="37" as="geometry" />
        </mxCell>
        <mxCell id="0CsIX5XTWQhmp2Wo3IE3-76" value="" style="endArrow=classic;html=1;rounded=0;exitX=0;exitY=0.5;exitDx=0;exitDy=0;entryX=1;entryY=0.189;entryDx=0;entryDy=0;entryPerimeter=0;" edge="1" parent="1" source="0CsIX5XTWQhmp2Wo3IE3-72" target="0CsIX5XTWQhmp2Wo3IE3-75">
          <mxGeometry width="50" height="50" relative="1" as="geometry">
            <mxPoint x="-298" y="513" as="sourcePoint" />
            <mxPoint x="-763" y="304" as="targetPoint" />
          </mxGeometry>
        </mxCell>
        <mxCell id="0CsIX5XTWQhmp2Wo3IE3-77" value="performer" style="swimlane;fontStyle=0;childLayout=stackLayout;horizontal=1;startSize=30;horizontalStack=0;resizeParent=1;resizeParentMax=0;resizeLast=0;collapsible=1;marginBottom=0;whiteSpace=wrap;html=1;" vertex="1" parent="1">
          <mxGeometry x="-583" y="74.5" width="130" height="39" as="geometry">
            <mxRectangle x="-583" y="62" width="87" height="30" as="alternateBounds" />
          </mxGeometry>
        </mxCell>
        <mxCell id="0CsIX5XTWQhmp2Wo3IE3-80" value="&lt;div&gt;performs_in&lt;/div&gt;" style="shape=rhombus;perimeter=rhombusPerimeter;whiteSpace=wrap;html=1;align=center;" vertex="1" parent="1">
          <mxGeometry x="-413" y="64" width="120" height="60" as="geometry" />
        </mxCell>
        <mxCell id="0CsIX5XTWQhmp2Wo3IE3-81" value="" style="shape=link;html=1;rounded=0;exitX=0.5;exitY=1;exitDx=0;exitDy=0;" edge="1" parent="1" source="0CsIX5XTWQhmp2Wo3IE3-80" target="0CsIX5XTWQhmp2Wo3IE3-67">
          <mxGeometry width="100" relative="1" as="geometry">
            <mxPoint x="-337" y="289" as="sourcePoint" />
            <mxPoint x="-237" y="289" as="targetPoint" />
          </mxGeometry>
        </mxCell>
        <mxCell id="0CsIX5XTWQhmp2Wo3IE3-82" value="" style="endArrow=classic;html=1;rounded=0;exitX=0;exitY=0.5;exitDx=0;exitDy=0;entryX=1;entryY=0.5;entryDx=0;entryDy=0;" edge="1" parent="1" source="0CsIX5XTWQhmp2Wo3IE3-80" target="0CsIX5XTWQhmp2Wo3IE3-77">
          <mxGeometry width="50" height="50" relative="1" as="geometry">
            <mxPoint x="-312" y="314" as="sourcePoint" />
            <mxPoint x="-262" y="264" as="targetPoint" />
          </mxGeometry>
        </mxCell>
        <mxCell id="0CsIX5XTWQhmp2Wo3IE3-85" value="" style="group" vertex="1" connectable="0" parent="1">
          <mxGeometry x="-619" y="6" width="214" height="37" as="geometry" />
        </mxCell>
        <mxCell id="0CsIX5XTWQhmp2Wo3IE3-83" value="" style="endArrow=classic;html=1;rounded=0;entryX=0.5;entryY=0;entryDx=0;entryDy=0;" edge="1" parent="0CsIX5XTWQhmp2Wo3IE3-85" target="0CsIX5XTWQhmp2Wo3IE3-77">
          <mxGeometry width="50" height="50" relative="1" as="geometry">
            <mxPoint x="214.00000000000003" as="sourcePoint" />
            <mxPoint x="139.30188679245285" y="9.418181818181818" as="targetPoint" />
            <Array as="points">
              <mxPoint x="214.00000000000003" y="37" />
              <mxPoint x="101.95283018867926" y="37" />
            </Array>
          </mxGeometry>
        </mxCell>
        <mxCell id="0CsIX5XTWQhmp2Wo3IE3-84" value="" style="endArrow=none;html=1;rounded=0;" edge="1" parent="0CsIX5XTWQhmp2Wo3IE3-85">
          <mxGeometry width="50" height="50" relative="1" as="geometry">
            <mxPoint y="0.6727272727272726" as="sourcePoint" />
            <mxPoint x="101.95283018867926" y="37" as="targetPoint" />
            <Array as="points">
              <mxPoint y="37" />
            </Array>
          </mxGeometry>
        </mxCell>
        <mxCell id="0CsIX5XTWQhmp2Wo3IE3-88" value="artist" style="swimlane;fontStyle=0;childLayout=stackLayout;horizontal=1;startSize=30;horizontalStack=0;resizeParent=1;resizeParentMax=0;resizeLast=0;collapsible=1;marginBottom=0;whiteSpace=wrap;html=1;" vertex="1" parent="1">
          <mxGeometry x="-428" y="-158" width="130" height="164" as="geometry" />
        </mxCell>
        <mxCell id="0CsIX5XTWQhmp2Wo3IE3-89" value="&lt;div&gt;&lt;u&gt;artist_id&lt;br&gt;&lt;/u&gt;&lt;/div&gt;&lt;div&gt;first_name&lt;/div&gt;&lt;div&gt;last_name&lt;/div&gt;&lt;div&gt;nickname&lt;/div&gt;&lt;div&gt;birth_date&lt;/div&gt;&lt;div&gt;email&lt;/div&gt;&lt;div&gt;website&lt;/div&gt;&lt;div&gt;instagram&lt;/div&gt;" style="text;strokeColor=none;fillColor=none;align=left;verticalAlign=middle;spacingLeft=4;spacingRight=4;overflow=hidden;points=[[0,0.5],[1,0.5]];portConstraint=eastwest;rotatable=0;whiteSpace=wrap;html=1;" vertex="1" parent="0CsIX5XTWQhmp2Wo3IE3-88">
          <mxGeometry y="30" width="130" height="134" as="geometry" />
        </mxCell>
        <mxCell id="0CsIX5XTWQhmp2Wo3IE3-90" value="band" style="swimlane;fontStyle=0;childLayout=stackLayout;horizontal=1;startSize=30;horizontalStack=0;resizeParent=1;resizeParentMax=0;resizeLast=0;collapsible=1;marginBottom=0;whiteSpace=wrap;html=1;" vertex="1" parent="1">
          <mxGeometry x="-726" y="-118" width="130" height="124" as="geometry" />
        </mxCell>
        <mxCell id="0CsIX5XTWQhmp2Wo3IE3-91" value="&lt;div&gt;&lt;u&gt;band_id&lt;/u&gt;&lt;/div&gt;&lt;div&gt;name&lt;/div&gt;&lt;div&gt;established&lt;/div&gt;&lt;div&gt;email&lt;/div&gt;&lt;div&gt;website&lt;/div&gt;&lt;div&gt;instagram&lt;/div&gt;" style="text;strokeColor=none;fillColor=none;align=left;verticalAlign=middle;spacingLeft=4;spacingRight=4;overflow=hidden;points=[[0,0.5],[1,0.5]];portConstraint=eastwest;rotatable=0;whiteSpace=wrap;html=1;" vertex="1" parent="0CsIX5XTWQhmp2Wo3IE3-90">
          <mxGeometry y="30" width="130" height="94" as="geometry" />
        </mxCell>
        <mxCell id="0CsIX5XTWQhmp2Wo3IE3-92" value="member_of" style="shape=rhombus;perimeter=rhombusPerimeter;whiteSpace=wrap;html=1;align=center;" vertex="1" parent="1">
          <mxGeometry x="-567" y="-91" width="120" height="60" as="geometry" />
        </mxCell>
        <mxCell id="0CsIX5XTWQhmp2Wo3IE3-93" value="" style="shape=link;html=1;rounded=0;entryX=0;entryY=0.5;entryDx=0;entryDy=0;exitX=0.992;exitY=0.286;exitDx=0;exitDy=0;exitPerimeter=0;" edge="1" parent="1" source="0CsIX5XTWQhmp2Wo3IE3-91" target="0CsIX5XTWQhmp2Wo3IE3-92">
          <mxGeometry width="100" relative="1" as="geometry">
            <mxPoint x="-567" y="367" as="sourcePoint" />
            <mxPoint x="-625" y="358" as="targetPoint" />
          </mxGeometry>
        </mxCell>
        <mxCell id="0CsIX5XTWQhmp2Wo3IE3-95" value="" style="endArrow=none;html=1;rounded=0;exitX=1;exitY=0.5;exitDx=0;exitDy=0;entryX=0;entryY=0.5;entryDx=0;entryDy=0;" edge="1" parent="1" source="0CsIX5XTWQhmp2Wo3IE3-92" target="0CsIX5XTWQhmp2Wo3IE3-89">
          <mxGeometry width="50" height="50" relative="1" as="geometry">
            <mxPoint x="-119" y="111" as="sourcePoint" />
            <mxPoint x="-69" y="61" as="targetPoint" />
          </mxGeometry>
        </mxCell>
        <mxCell id="0CsIX5XTWQhmp2Wo3IE3-96" value="artist_subgenre" style="shape=rhombus;perimeter=rhombusPerimeter;whiteSpace=wrap;html=1;align=center;" vertex="1" parent="1">
          <mxGeometry x="-423" y="-238" width="120" height="60" as="geometry" />
        </mxCell>
        <mxCell id="0CsIX5XTWQhmp2Wo3IE3-97" value="" style="shape=link;html=1;rounded=0;exitX=0.5;exitY=1;exitDx=0;exitDy=0;entryX=0.5;entryY=0;entryDx=0;entryDy=0;" edge="1" parent="1" source="0CsIX5XTWQhmp2Wo3IE3-96" target="0CsIX5XTWQhmp2Wo3IE3-88">
          <mxGeometry width="100" relative="1" as="geometry">
            <mxPoint x="-76" y="-9" as="sourcePoint" />
            <mxPoint x="24" y="-9" as="targetPoint" />
          </mxGeometry>
        </mxCell>
        <mxCell id="0CsIX5XTWQhmp2Wo3IE3-102" value="" style="group" vertex="1" connectable="0" parent="1">
          <mxGeometry x="-577" y="-228" width="112" height="62" as="geometry" />
        </mxCell>
        <mxCell id="0CsIX5XTWQhmp2Wo3IE3-103" value="subgenre" style="swimlane;fontStyle=0;childLayout=stackLayout;horizontal=1;startSize=30;horizontalStack=0;resizeParent=1;resizeParentMax=0;resizeLast=0;collapsible=1;marginBottom=0;whiteSpace=wrap;html=1;strokeColor=default;perimeterSpacing=1;" vertex="1" parent="0CsIX5XTWQhmp2Wo3IE3-102">
          <mxGeometry x="29.091641791044776" y="-8.5" width="73.55223880597015" height="57" as="geometry" />
        </mxCell>
        <mxCell id="0CsIX5XTWQhmp2Wo3IE3-104" value="name" style="text;strokeColor=none;fillColor=none;align=left;verticalAlign=middle;spacingLeft=4;spacingRight=4;overflow=hidden;points=[[0,0.5],[1,0.5]];portConstraint=eastwest;rotatable=0;whiteSpace=wrap;html=1;" vertex="1" parent="0CsIX5XTWQhmp2Wo3IE3-103">
          <mxGeometry y="30" width="73.55223880597015" height="27" as="geometry" />
        </mxCell>
        <mxCell id="0CsIX5XTWQhmp2Wo3IE3-105" value="" style="swimlane;startSize=0;" vertex="1" parent="0CsIX5XTWQhmp2Wo3IE3-102">
          <mxGeometry x="27" y="-11" width="77.73134328358209" height="62" as="geometry" />
        </mxCell>
        <mxCell id="0CsIX5XTWQhmp2Wo3IE3-106" value="" style="endArrow=none;dashed=1;html=1;rounded=0;" edge="1" parent="0CsIX5XTWQhmp2Wo3IE3-105">
          <mxGeometry width="50" height="50" relative="1" as="geometry">
            <mxPoint x="8.996567164179105" y="54.26999999999998" as="sourcePoint" />
            <mxPoint x="37.4144776119403" y="54" as="targetPoint" />
          </mxGeometry>
        </mxCell>
        <mxCell id="0CsIX5XTWQhmp2Wo3IE3-108" value="artist_subgenre" style="shape=rhombus;perimeter=rhombusPerimeter;whiteSpace=wrap;html=1;align=center;" vertex="1" parent="1">
          <mxGeometry x="-721" y="-238" width="120" height="60" as="geometry" />
        </mxCell>
        <mxCell id="0CsIX5XTWQhmp2Wo3IE3-109" value="" style="shape=link;html=1;rounded=0;exitX=0.5;exitY=1;exitDx=0;exitDy=0;entryX=0.5;entryY=0;entryDx=0;entryDy=0;" edge="1" parent="1" source="0CsIX5XTWQhmp2Wo3IE3-108" target="0CsIX5XTWQhmp2Wo3IE3-90">
          <mxGeometry width="100" relative="1" as="geometry">
            <mxPoint x="-359" y="-25" as="sourcePoint" />
            <mxPoint x="-636" y="-129" as="targetPoint" />
          </mxGeometry>
        </mxCell>
        <mxCell id="0CsIX5XTWQhmp2Wo3IE3-110" value="" style="endArrow=none;html=1;rounded=0;exitX=1;exitY=0.5;exitDx=0;exitDy=0;entryX=0;entryY=0.5;entryDx=0;entryDy=0;" edge="1" parent="1" source="0CsIX5XTWQhmp2Wo3IE3-108" target="0CsIX5XTWQhmp2Wo3IE3-105">
          <mxGeometry width="50" height="50" relative="1" as="geometry">
            <mxPoint x="-565" y="-145" as="sourcePoint" />
            <mxPoint x="-515" y="-195" as="targetPoint" />
          </mxGeometry>
        </mxCell>
        <mxCell id="0CsIX5XTWQhmp2Wo3IE3-111" value="" style="endArrow=none;html=1;rounded=0;exitX=1;exitY=0.5;exitDx=0;exitDy=0;entryX=0;entryY=0.5;entryDx=0;entryDy=0;" edge="1" parent="1" source="0CsIX5XTWQhmp2Wo3IE3-105" target="0CsIX5XTWQhmp2Wo3IE3-96">
          <mxGeometry width="50" height="50" relative="1" as="geometry">
            <mxPoint x="-465" y="-197.13" as="sourcePoint" />
            <mxPoint x="-414" y="-197.13" as="targetPoint" />
          </mxGeometry>
        </mxCell>
        <mxCell id="0CsIX5XTWQhmp2Wo3IE3-115" value="" style="group" vertex="1" connectable="0" parent="1">
          <mxGeometry x="-575" y="-327" width="128" height="64" as="geometry" />
        </mxCell>
        <mxCell id="0CsIX5XTWQhmp2Wo3IE3-116" value="" style="rhombus;whiteSpace=wrap;html=1;fillColor=none;" vertex="1" parent="0CsIX5XTWQhmp2Wo3IE3-115">
          <mxGeometry width="128" height="64" as="geometry" />
        </mxCell>
        <mxCell id="0CsIX5XTWQhmp2Wo3IE3-117" value="&lt;div&gt;of&lt;/div&gt;" style="shape=rhombus;perimeter=rhombusPerimeter;whiteSpace=wrap;html=1;align=center;" vertex="1" parent="0CsIX5XTWQhmp2Wo3IE3-115">
          <mxGeometry x="4" y="2" width="120" height="60" as="geometry" />
        </mxCell>
        <mxCell id="0CsIX5XTWQhmp2Wo3IE3-118" value="" style="shape=link;html=1;rounded=0;exitX=0.5;exitY=1;exitDx=0;exitDy=0;entryX=0.5;entryY=0;entryDx=0;entryDy=0;" edge="1" parent="1" source="0CsIX5XTWQhmp2Wo3IE3-116" target="0CsIX5XTWQhmp2Wo3IE3-103">
          <mxGeometry width="100" relative="1" as="geometry">
            <mxPoint x="-474" y="-258" as="sourcePoint" />
            <mxPoint x="-374" y="-258" as="targetPoint" />
          </mxGeometry>
        </mxCell>
        <mxCell id="0CsIX5XTWQhmp2Wo3IE3-119" value="genre" style="swimlane;fontStyle=0;childLayout=stackLayout;horizontal=1;startSize=30;horizontalStack=0;resizeParent=1;resizeParentMax=0;resizeLast=0;collapsible=1;marginBottom=0;whiteSpace=wrap;html=1;" vertex="1" parent="1">
          <mxGeometry x="-363" y="-332" width="81" height="65" as="geometry" />
        </mxCell>
        <mxCell id="0CsIX5XTWQhmp2Wo3IE3-120" value="&lt;div&gt;&lt;u&gt;genre_id&lt;/u&gt;&lt;/div&gt;&lt;div&gt;name&lt;/div&gt;" style="text;strokeColor=none;fillColor=none;align=left;verticalAlign=middle;spacingLeft=4;spacingRight=4;overflow=hidden;points=[[0,0.5],[1,0.5]];portConstraint=eastwest;rotatable=0;whiteSpace=wrap;html=1;" vertex="1" parent="0CsIX5XTWQhmp2Wo3IE3-119">
          <mxGeometry y="30" width="81" height="35" as="geometry" />
        </mxCell>
        <mxCell id="0CsIX5XTWQhmp2Wo3IE3-121" value="" style="endArrow=classic;html=1;rounded=0;entryX=-0.027;entryY=0.211;entryDx=0;entryDy=0;exitX=1;exitY=0.5;exitDx=0;exitDy=0;entryPerimeter=0;" edge="1" parent="1" source="0CsIX5XTWQhmp2Wo3IE3-116" target="0CsIX5XTWQhmp2Wo3IE3-120">
          <mxGeometry width="50" height="50" relative="1" as="geometry">
            <mxPoint x="-451" y="-305" as="sourcePoint" />
            <mxPoint x="-401" y="-355" as="targetPoint" />
          </mxGeometry>
        </mxCell>
        <mxCell id="0CsIX5XTWQhmp2Wo3IE3-123" value="visitor" style="swimlane;fontStyle=0;childLayout=stackLayout;horizontal=1;startSize=30;horizontalStack=0;resizeParent=1;resizeParentMax=0;resizeLast=0;collapsible=1;marginBottom=0;whiteSpace=wrap;html=1;" vertex="1" parent="1">
          <mxGeometry x="-613" y="495" width="96" height="127" as="geometry" />
        </mxCell>
        <mxCell id="0CsIX5XTWQhmp2Wo3IE3-124" value="&lt;div&gt;&lt;u&gt;visitor_id&lt;/u&gt;&lt;/div&gt;&lt;div&gt;first_name&lt;/div&gt;&lt;div&gt;last_name&lt;/div&gt;&lt;div&gt;phone_number&lt;/div&gt;&lt;div&gt;email&lt;/div&gt;&lt;div&gt;birth_date&lt;/div&gt;" style="text;strokeColor=none;fillColor=none;align=left;verticalAlign=middle;spacingLeft=4;spacingRight=4;overflow=hidden;points=[[0,0.5],[1,0.5]];portConstraint=eastwest;rotatable=0;whiteSpace=wrap;html=1;" vertex="1" parent="0CsIX5XTWQhmp2Wo3IE3-123">
          <mxGeometry y="30" width="96" height="97" as="geometry" />
        </mxCell>
        <mxCell id="0CsIX5XTWQhmp2Wo3IE3-125" value="ticket" style="swimlane;fontStyle=0;childLayout=stackLayout;horizontal=1;startSize=30;horizontalStack=0;resizeParent=1;resizeParentMax=0;resizeLast=0;collapsible=1;marginBottom=0;whiteSpace=wrap;html=1;" vertex="1" parent="1">
          <mxGeometry x="-726" y="229" width="130" height="125" as="geometry" />
        </mxCell>
        <mxCell id="0CsIX5XTWQhmp2Wo3IE3-126" value="&lt;div&gt;purchase_date_time&lt;/div&gt;&lt;div&gt;price&lt;/div&gt;&lt;div&gt;barcode&lt;/div&gt;&lt;div&gt;used&lt;/div&gt;" style="text;strokeColor=none;fillColor=none;align=left;verticalAlign=middle;spacingLeft=4;spacingRight=4;overflow=hidden;points=[[0,0.5],[1,0.5]];portConstraint=eastwest;rotatable=0;whiteSpace=wrap;html=1;" vertex="1" parent="0CsIX5XTWQhmp2Wo3IE3-125">
          <mxGeometry y="30" width="130" height="95" as="geometry" />
        </mxCell>
        <mxCell id="0CsIX5XTWQhmp2Wo3IE3-128" value="" style="shape=link;html=1;rounded=0;exitX=0.05;exitY=0.478;exitDx=0;exitDy=0;entryX=1.005;entryY=0.226;entryDx=0;entryDy=0;exitPerimeter=0;entryPerimeter=0;" edge="1" parent="1" source="0CsIX5XTWQhmp2Wo3IE3-162" target="0CsIX5XTWQhmp2Wo3IE3-151">
          <mxGeometry width="100" relative="1" as="geometry">
            <mxPoint x="-521" y="258.9999999999998" as="sourcePoint" />
            <mxPoint x="-308" y="394" as="targetPoint" />
          </mxGeometry>
        </mxCell>
        <mxCell id="0CsIX5XTWQhmp2Wo3IE3-130" value="" style="endArrow=classic;html=1;rounded=0;exitX=1;exitY=0.5;exitDx=0;exitDy=0;entryX=0;entryY=0.25;entryDx=0;entryDy=0;" edge="1" parent="1" source="0CsIX5XTWQhmp2Wo3IE3-162" target="0CsIX5XTWQhmp2Wo3IE3-18">
          <mxGeometry width="50" height="50" relative="1" as="geometry">
            <mxPoint x="-393" y="258.9999999999998" as="sourcePoint" />
            <mxPoint x="-333" y="369" as="targetPoint" />
          </mxGeometry>
        </mxCell>
        <mxCell id="0CsIX5XTWQhmp2Wo3IE3-139" value="" style="shape=link;html=1;rounded=0;exitX=0.5;exitY=0;exitDx=0;exitDy=0;entryX=0.938;entryY=1.01;entryDx=0;entryDy=0;entryPerimeter=0;" edge="1" parent="1" source="0CsIX5XTWQhmp2Wo3IE3-167" target="0CsIX5XTWQhmp2Wo3IE3-151">
          <mxGeometry width="100" relative="1" as="geometry">
            <mxPoint x="-577" y="352" as="sourcePoint" />
            <mxPoint x="-585" y="280" as="targetPoint" />
          </mxGeometry>
        </mxCell>
        <mxCell id="0CsIX5XTWQhmp2Wo3IE3-140" value="" style="endArrow=classic;html=1;rounded=0;exitX=0.5;exitY=1;exitDx=0;exitDy=0;entryX=0.111;entryY=-0.008;entryDx=0;entryDy=0;entryPerimeter=0;" edge="1" parent="1" source="0CsIX5XTWQhmp2Wo3IE3-167" target="0CsIX5XTWQhmp2Wo3IE3-123">
          <mxGeometry width="50" height="50" relative="1" as="geometry">
            <mxPoint x="-513" y="383.9999999999998" as="sourcePoint" />
            <mxPoint x="-245" y="282" as="targetPoint" />
          </mxGeometry>
        </mxCell>
        <mxCell id="0CsIX5XTWQhmp2Wo3IE3-141" value="payed_with" style="shape=rhombus;perimeter=rhombusPerimeter;whiteSpace=wrap;html=1;align=center;" vertex="1" parent="1">
          <mxGeometry x="-753" y="397" width="95" height="46" as="geometry" />
        </mxCell>
        <mxCell id="0CsIX5XTWQhmp2Wo3IE3-142" value="payment_method" style="swimlane;fontStyle=0;childLayout=stackLayout;horizontal=1;startSize=30;horizontalStack=0;resizeParent=1;resizeParentMax=0;resizeLast=0;collapsible=1;marginBottom=0;whiteSpace=wrap;html=1;" vertex="1" parent="1">
          <mxGeometry x="-749" y="540" width="121" height="69" as="geometry" />
        </mxCell>
        <mxCell id="0CsIX5XTWQhmp2Wo3IE3-143" value="&lt;div&gt;peyment_method_id&lt;/div&gt;&lt;div&gt;name&lt;/div&gt;" style="text;strokeColor=none;fillColor=none;align=left;verticalAlign=middle;spacingLeft=4;spacingRight=4;overflow=hidden;points=[[0,0.5],[1,0.5]];portConstraint=eastwest;rotatable=0;whiteSpace=wrap;html=1;" vertex="1" parent="0CsIX5XTWQhmp2Wo3IE3-142">
          <mxGeometry y="30" width="121" height="39" as="geometry" />
        </mxCell>
        <mxCell id="0CsIX5XTWQhmp2Wo3IE3-144" value="of_category" style="shape=rhombus;perimeter=rhombusPerimeter;whiteSpace=wrap;html=1;align=center;" vertex="1" parent="1">
          <mxGeometry x="-520" y="328" width="95" height="46" as="geometry" />
        </mxCell>
        <mxCell id="0CsIX5XTWQhmp2Wo3IE3-145" value="ticket_category" style="swimlane;fontStyle=0;childLayout=stackLayout;horizontal=1;startSize=30;horizontalStack=0;resizeParent=1;resizeParentMax=0;resizeLast=0;collapsible=1;marginBottom=0;whiteSpace=wrap;html=1;" vertex="1" parent="1">
          <mxGeometry x="-499" y="397" width="107" height="69" as="geometry" />
        </mxCell>
        <mxCell id="0CsIX5XTWQhmp2Wo3IE3-146" value="&lt;div&gt;ticket_category_id&lt;/div&gt;&lt;div&gt;name&lt;/div&gt;" style="text;strokeColor=none;fillColor=none;align=left;verticalAlign=middle;spacingLeft=4;spacingRight=4;overflow=hidden;points=[[0,0.5],[1,0.5]];portConstraint=eastwest;rotatable=0;whiteSpace=wrap;html=1;" vertex="1" parent="0CsIX5XTWQhmp2Wo3IE3-145">
          <mxGeometry y="30" width="107" height="39" as="geometry" />
        </mxCell>
        <mxCell id="0CsIX5XTWQhmp2Wo3IE3-147" value="" style="shape=link;html=1;rounded=0;exitX=0;exitY=0.5;exitDx=0;exitDy=0;entryX=0.998;entryY=0.944;entryDx=0;entryDy=0;entryPerimeter=0;" edge="1" parent="1" source="0CsIX5XTWQhmp2Wo3IE3-144" target="0CsIX5XTWQhmp2Wo3IE3-151">
          <mxGeometry width="100" relative="1" as="geometry">
            <mxPoint x="-59" y="579.48" as="sourcePoint" />
            <mxPoint x="-479" y="379" as="targetPoint" />
          </mxGeometry>
        </mxCell>
        <mxCell id="0CsIX5XTWQhmp2Wo3IE3-148" value="" style="shape=link;html=1;rounded=0;exitX=0.857;exitY=1.033;exitDx=0;exitDy=0;entryX=0.5;entryY=0;entryDx=0;entryDy=0;exitPerimeter=0;" edge="1" parent="1" target="0CsIX5XTWQhmp2Wo3IE3-141">
          <mxGeometry width="100" relative="1" as="geometry">
            <mxPoint x="-705.5899999999999" y="357.135" as="sourcePoint" />
            <mxPoint x="-772" y="368" as="targetPoint" />
          </mxGeometry>
        </mxCell>
        <mxCell id="0CsIX5XTWQhmp2Wo3IE3-149" value="" style="endArrow=classic;html=1;rounded=0;exitX=0.5;exitY=1;exitDx=0;exitDy=0;entryX=0.359;entryY=-0.035;entryDx=0;entryDy=0;entryPerimeter=0;" edge="1" parent="1" source="0CsIX5XTWQhmp2Wo3IE3-141" target="0CsIX5XTWQhmp2Wo3IE3-142">
          <mxGeometry width="50" height="50" relative="1" as="geometry">
            <mxPoint x="-383" y="412" as="sourcePoint" />
            <mxPoint x="-613" y="529" as="targetPoint" />
          </mxGeometry>
        </mxCell>
        <mxCell id="0CsIX5XTWQhmp2Wo3IE3-150" value="" style="endArrow=classic;html=1;rounded=0;exitX=0.5;exitY=1;exitDx=0;exitDy=0;entryX=0.25;entryY=0;entryDx=0;entryDy=0;" edge="1" parent="1" source="0CsIX5XTWQhmp2Wo3IE3-144" target="0CsIX5XTWQhmp2Wo3IE3-145">
          <mxGeometry width="50" height="50" relative="1" as="geometry">
            <mxPoint x="-254" y="645.48" as="sourcePoint" />
            <mxPoint x="-341" y="810.48" as="targetPoint" />
          </mxGeometry>
        </mxCell>
        <mxCell id="0CsIX5XTWQhmp2Wo3IE3-151" value="" style="swimlane;startSize=0;" vertex="1" parent="1">
          <mxGeometry x="-728" y="227" width="134" height="131" as="geometry" />
        </mxCell>
        <mxCell id="0CsIX5XTWQhmp2Wo3IE3-152" value="" style="endArrow=classic;html=1;rounded=0;entryX=-0.002;entryY=0.6;entryDx=0;entryDy=0;entryPerimeter=0;exitX=0;exitY=0.5;exitDx=0;exitDy=0;" edge="1" parent="1" source="0CsIX5XTWQhmp2Wo3IE3-170" target="0CsIX5XTWQhmp2Wo3IE3-68">
          <mxGeometry width="50" height="50" relative="1" as="geometry">
            <mxPoint x="-435" y="719" as="sourcePoint" />
            <mxPoint x="-520" y="241" as="targetPoint" />
            <Array as="points">
              <mxPoint x="-759" y="764" />
              <mxPoint x="-757" y="219" />
            </Array>
          </mxGeometry>
        </mxCell>
        <mxCell id="0CsIX5XTWQhmp2Wo3IE3-153" value="rating" style="swimlane;fontStyle=0;childLayout=stackLayout;horizontal=1;startSize=30;horizontalStack=0;resizeParent=1;resizeParentMax=0;resizeLast=0;collapsible=1;marginBottom=0;whiteSpace=wrap;html=1;" vertex="1" parent="1">
          <mxGeometry x="-596" y="709" width="121" height="110" as="geometry" />
        </mxCell>
        <mxCell id="0CsIX5XTWQhmp2Wo3IE3-154" value="&lt;div&gt;artist_performance&lt;/div&gt;&lt;div&gt;sound_lighting&lt;/div&gt;&lt;div&gt;stage_presence&lt;/div&gt;&lt;div&gt;organization&lt;/div&gt;&lt;div&gt;overall_impression&lt;/div&gt;&lt;div&gt;&lt;br&gt;&lt;/div&gt;" style="text;strokeColor=none;fillColor=none;align=left;verticalAlign=middle;spacingLeft=4;spacingRight=4;overflow=hidden;points=[[0,0.5],[1,0.5]];portConstraint=eastwest;rotatable=0;whiteSpace=wrap;html=1;" vertex="1" parent="0CsIX5XTWQhmp2Wo3IE3-153">
          <mxGeometry y="30" width="121" height="80" as="geometry" />
        </mxCell>
        <mxCell id="0CsIX5XTWQhmp2Wo3IE3-158" value="" style="group" vertex="1" connectable="0" parent="1">
          <mxGeometry x="-609" y="624.98" width="128" height="73" as="geometry" />
        </mxCell>
        <mxCell id="0CsIX5XTWQhmp2Wo3IE3-159" value="" style="rhombus;whiteSpace=wrap;html=1;fillColor=none;" vertex="1" parent="0CsIX5XTWQhmp2Wo3IE3-158">
          <mxGeometry y="14" width="96" height="50" as="geometry" />
        </mxCell>
        <mxCell id="0CsIX5XTWQhmp2Wo3IE3-160" value="rated" style="shape=rhombus;perimeter=rhombusPerimeter;whiteSpace=wrap;html=1;align=center;" vertex="1" parent="0CsIX5XTWQhmp2Wo3IE3-158">
          <mxGeometry x="4" y="16" width="88" height="46" as="geometry" />
        </mxCell>
        <mxCell id="0CsIX5XTWQhmp2Wo3IE3-165" value="" style="group" vertex="1" connectable="0" parent="1">
          <mxGeometry x="-650" y="393" width="128" height="73" as="geometry" />
        </mxCell>
        <mxCell id="0CsIX5XTWQhmp2Wo3IE3-166" value="" style="rhombus;whiteSpace=wrap;html=1;fillColor=none;" vertex="1" parent="0CsIX5XTWQhmp2Wo3IE3-165">
          <mxGeometry y="14" width="96" height="50" as="geometry" />
        </mxCell>
        <mxCell id="0CsIX5XTWQhmp2Wo3IE3-167" value="&lt;div&gt;has&lt;/div&gt;" style="shape=rhombus;perimeter=rhombusPerimeter;whiteSpace=wrap;html=1;align=center;" vertex="1" parent="0CsIX5XTWQhmp2Wo3IE3-165">
          <mxGeometry x="4" y="16" width="88" height="46" as="geometry" />
        </mxCell>
        <mxCell id="0CsIX5XTWQhmp2Wo3IE3-169" value="" style="group" vertex="1" connectable="0" parent="1">
          <mxGeometry x="-721" y="725" width="128" height="73" as="geometry" />
        </mxCell>
        <mxCell id="0CsIX5XTWQhmp2Wo3IE3-170" value="" style="rhombus;whiteSpace=wrap;html=1;fillColor=none;" vertex="1" parent="0CsIX5XTWQhmp2Wo3IE3-169">
          <mxGeometry y="14" width="96" height="50" as="geometry" />
        </mxCell>
        <mxCell id="0CsIX5XTWQhmp2Wo3IE3-171" value="for" style="shape=rhombus;perimeter=rhombusPerimeter;whiteSpace=wrap;html=1;align=center;" vertex="1" parent="0CsIX5XTWQhmp2Wo3IE3-169">
          <mxGeometry x="4" y="16" width="88" height="46" as="geometry" />
        </mxCell>
        <mxCell id="0CsIX5XTWQhmp2Wo3IE3-172" value="" style="endArrow=classic;html=1;rounded=0;entryX=0.537;entryY=1.028;entryDx=0;entryDy=0;entryPerimeter=0;exitX=0.5;exitY=0;exitDx=0;exitDy=0;" edge="1" parent="1" source="0CsIX5XTWQhmp2Wo3IE3-159" target="0CsIX5XTWQhmp2Wo3IE3-124">
          <mxGeometry width="50" height="50" relative="1" as="geometry">
            <mxPoint x="-559" y="706" as="sourcePoint" />
            <mxPoint x="-509" y="656" as="targetPoint" />
          </mxGeometry>
        </mxCell>
        <mxCell id="0CsIX5XTWQhmp2Wo3IE3-173" value="" style="swimlane;startSize=0;" vertex="1" parent="1">
          <mxGeometry x="-598" y="707" width="125" height="115" as="geometry" />
        </mxCell>
        <mxCell id="0CsIX5XTWQhmp2Wo3IE3-174" value="" style="shape=link;html=1;rounded=0;exitX=1;exitY=0.5;exitDx=0;exitDy=0;entryX=-0.017;entryY=0.316;entryDx=0;entryDy=0;entryPerimeter=0;" edge="1" parent="1" source="0CsIX5XTWQhmp2Wo3IE3-170" target="0CsIX5XTWQhmp2Wo3IE3-154">
          <mxGeometry width="100" relative="1" as="geometry">
            <mxPoint x="-584" y="680" as="sourcePoint" />
            <mxPoint x="-484" y="680" as="targetPoint" />
          </mxGeometry>
        </mxCell>
        <mxCell id="0CsIX5XTWQhmp2Wo3IE3-175" value="" style="shape=link;html=1;rounded=0;entryX=0.5;entryY=1;entryDx=0;entryDy=0;exitX=0.296;exitY=0.009;exitDx=0;exitDy=0;exitPerimeter=0;" edge="1" parent="1" source="0CsIX5XTWQhmp2Wo3IE3-173" target="0CsIX5XTWQhmp2Wo3IE3-159">
          <mxGeometry width="100" relative="1" as="geometry">
            <mxPoint x="-509" y="705" as="sourcePoint" />
            <mxPoint x="-484" y="667" as="targetPoint" />
          </mxGeometry>
        </mxCell>
        <mxCell id="0CsIX5XTWQhmp2Wo3IE3-179" value="" style="group" vertex="1" connectable="0" parent="1">
          <mxGeometry x="-570" y="259" width="128" height="73" as="geometry" />
        </mxCell>
        <mxCell id="0CsIX5XTWQhmp2Wo3IE3-180" value="" style="rhombus;whiteSpace=wrap;html=1;fillColor=none;" vertex="1" parent="0CsIX5XTWQhmp2Wo3IE3-179">
          <mxGeometry y="14" width="96" height="50" as="geometry" />
        </mxCell>
        <mxCell id="0CsIX5XTWQhmp2Wo3IE3-181" value="on_sale" style="shape=rhombus;perimeter=rhombusPerimeter;whiteSpace=wrap;html=1;align=center;" vertex="1" parent="0CsIX5XTWQhmp2Wo3IE3-179">
          <mxGeometry x="4" y="16" width="88" height="46" as="geometry" />
        </mxCell>
        <mxCell id="0CsIX5XTWQhmp2Wo3IE3-183" value="" style="shape=flexArrow;html=1;rounded=0;exitX=1;exitY=0.5;exitDx=0;exitDy=0;entryX=0;entryY=0.435;entryDx=0;entryDy=0;entryPerimeter=0;endWidth=6.444444444444444;endSize=1.7933333333333332;width=3.3333333333333335;" edge="1" parent="1" source="0CsIX5XTWQhmp2Wo3IE3-180" target="0CsIX5XTWQhmp2Wo3IE3-176">
          <mxGeometry width="100" relative="1" as="geometry">
            <mxPoint x="-398" y="424" as="sourcePoint" />
            <mxPoint x="-298" y="424" as="targetPoint" />
          </mxGeometry>
        </mxCell>
        <mxCell id="0CsIX5XTWQhmp2Wo3IE3-184" value="" style="endArrow=classic;html=1;rounded=0;entryX=1.002;entryY=0.542;entryDx=0;entryDy=0;entryPerimeter=0;exitX=0;exitY=0.5;exitDx=0;exitDy=0;" edge="1" parent="1" source="0CsIX5XTWQhmp2Wo3IE3-180" target="0CsIX5XTWQhmp2Wo3IE3-151">
          <mxGeometry width="50" height="50" relative="1" as="geometry">
            <mxPoint x="-373" y="449" as="sourcePoint" />
            <mxPoint x="-323" y="399" as="targetPoint" />
          </mxGeometry>
        </mxCell>
        <mxCell id="0CsIX5XTWQhmp2Wo3IE3-162" value="" style="rhombus;whiteSpace=wrap;html=1;fillColor=none;" vertex="1" parent="1">
          <mxGeometry x="-521" y="233" width="96" height="50" as="geometry" />
        </mxCell>
        <mxCell id="0CsIX5XTWQhmp2Wo3IE3-163" value="for" style="shape=rhombus;perimeter=rhombusPerimeter;whiteSpace=wrap;html=1;align=center;" vertex="1" parent="1">
          <mxGeometry x="-517" y="235" width="88" height="46" as="geometry" />
        </mxCell>
        <mxCell id="0CsIX5XTWQhmp2Wo3IE3-191" value="" style="group" vertex="1" connectable="0" parent="1">
          <mxGeometry x="-363" y="364" width="128" height="73" as="geometry" />
        </mxCell>
        <mxCell id="0CsIX5XTWQhmp2Wo3IE3-192" value="" style="rhombus;whiteSpace=wrap;html=1;fillColor=none;" vertex="1" parent="0CsIX5XTWQhmp2Wo3IE3-191">
          <mxGeometry y="14" width="96" height="50" as="geometry" />
        </mxCell>
        <mxCell id="0CsIX5XTWQhmp2Wo3IE3-193" value="&lt;div&gt;for&lt;/div&gt;" style="shape=rhombus;perimeter=rhombusPerimeter;whiteSpace=wrap;html=1;align=center;" vertex="1" parent="0CsIX5XTWQhmp2Wo3IE3-191">
          <mxGeometry x="4" y="16" width="88" height="46" as="geometry" />
        </mxCell>
        <mxCell id="0CsIX5XTWQhmp2Wo3IE3-196" value="" style="group" vertex="1" connectable="0" parent="1">
          <mxGeometry x="-435" y="271" width="89" height="62" as="geometry" />
        </mxCell>
        <mxCell id="0CsIX5XTWQhmp2Wo3IE3-186" value="" style="swimlane;startSize=0;" vertex="1" parent="0CsIX5XTWQhmp2Wo3IE3-196">
          <mxGeometry width="89" height="62" as="geometry" />
        </mxCell>
        <mxCell id="0CsIX5XTWQhmp2Wo3IE3-176" value="resales_seller" style="swimlane;fontStyle=0;childLayout=stackLayout;horizontal=1;startSize=30;horizontalStack=0;resizeParent=1;resizeParentMax=0;resizeLast=0;collapsible=1;marginBottom=0;whiteSpace=wrap;html=1;" vertex="1" parent="0CsIX5XTWQhmp2Wo3IE3-196">
          <mxGeometry x="2" y="3" width="84" height="56" as="geometry" />
        </mxCell>
        <mxCell id="0CsIX5XTWQhmp2Wo3IE3-177" value="date_time" style="text;strokeColor=none;fillColor=none;align=left;verticalAlign=middle;spacingLeft=4;spacingRight=4;overflow=hidden;points=[[0,0.5],[1,0.5]];portConstraint=eastwest;rotatable=0;whiteSpace=wrap;html=1;" vertex="1" parent="0CsIX5XTWQhmp2Wo3IE3-176">
          <mxGeometry y="30" width="84" height="26" as="geometry" />
        </mxCell>
        <mxCell id="0CsIX5XTWQhmp2Wo3IE3-197" value="" style="group" vertex="1" connectable="0" parent="1">
          <mxGeometry x="-360" y="486" width="89" height="62" as="geometry" />
        </mxCell>
        <mxCell id="0CsIX5XTWQhmp2Wo3IE3-198" value="" style="swimlane;startSize=0;" vertex="1" parent="0CsIX5XTWQhmp2Wo3IE3-197">
          <mxGeometry width="89" height="62" as="geometry" />
        </mxCell>
        <mxCell id="0CsIX5XTWQhmp2Wo3IE3-199" value="resales_buyer" style="swimlane;fontStyle=0;childLayout=stackLayout;horizontal=1;startSize=30;horizontalStack=0;resizeParent=1;resizeParentMax=0;resizeLast=0;collapsible=1;marginBottom=0;whiteSpace=wrap;html=1;" vertex="1" parent="0CsIX5XTWQhmp2Wo3IE3-197">
          <mxGeometry x="2" y="3" width="84" height="56" as="geometry" />
        </mxCell>
        <mxCell id="0CsIX5XTWQhmp2Wo3IE3-200" value="date_time" style="text;strokeColor=none;fillColor=none;align=left;verticalAlign=middle;spacingLeft=4;spacingRight=4;overflow=hidden;points=[[0,0.5],[1,0.5]];portConstraint=eastwest;rotatable=0;whiteSpace=wrap;html=1;" vertex="1" parent="0CsIX5XTWQhmp2Wo3IE3-199">
          <mxGeometry y="30" width="84" height="26" as="geometry" />
        </mxCell>
        <mxCell id="0CsIX5XTWQhmp2Wo3IE3-201" value="" style="shape=link;html=1;rounded=0;entryX=0.5;entryY=1;entryDx=0;entryDy=0;exitX=0.5;exitY=0;exitDx=0;exitDy=0;" edge="1" parent="1" source="0CsIX5XTWQhmp2Wo3IE3-198" target="0CsIX5XTWQhmp2Wo3IE3-192">
          <mxGeometry width="100" relative="1" as="geometry">
            <mxPoint x="-433" y="482" as="sourcePoint" />
            <mxPoint x="-333" y="482" as="targetPoint" />
          </mxGeometry>
        </mxCell>
        <mxCell id="0CsIX5XTWQhmp2Wo3IE3-202" value="of_category" style="shape=rhombus;perimeter=rhombusPerimeter;whiteSpace=wrap;html=1;align=center;" vertex="1" parent="1">
          <mxGeometry x="-494" y="494" width="95" height="46" as="geometry" />
        </mxCell>
        <mxCell id="0CsIX5XTWQhmp2Wo3IE3-204" value="" style="shape=link;html=1;rounded=0;entryX=0;entryY=0.5;entryDx=0;entryDy=0;exitX=1;exitY=0.5;exitDx=0;exitDy=0;" edge="1" parent="1" source="0CsIX5XTWQhmp2Wo3IE3-202" target="0CsIX5XTWQhmp2Wo3IE3-198">
          <mxGeometry width="100" relative="1" as="geometry">
            <mxPoint x="-433" y="482" as="sourcePoint" />
            <mxPoint x="-333" y="482" as="targetPoint" />
          </mxGeometry>
        </mxCell>
        <mxCell id="0CsIX5XTWQhmp2Wo3IE3-206" value="" style="endArrow=classic;html=1;rounded=0;entryX=0.492;entryY=1;entryDx=0;entryDy=0;entryPerimeter=0;exitX=0.5;exitY=0;exitDx=0;exitDy=0;" edge="1" parent="1" source="0CsIX5XTWQhmp2Wo3IE3-202" target="0CsIX5XTWQhmp2Wo3IE3-146">
          <mxGeometry width="50" height="50" relative="1" as="geometry">
            <mxPoint x="-408" y="507" as="sourcePoint" />
            <mxPoint x="-358" y="457" as="targetPoint" />
          </mxGeometry>
        </mxCell>
        <mxCell id="0CsIX5XTWQhmp2Wo3IE3-207" style="edgeStyle=orthogonalEdgeStyle;rounded=0;orthogonalLoop=1;jettySize=auto;html=1;entryX=0.013;entryY=0.586;entryDx=0;entryDy=0;entryPerimeter=0;" edge="1" parent="1" source="0CsIX5XTWQhmp2Wo3IE3-193" target="0CsIX5XTWQhmp2Wo3IE3-19">
          <mxGeometry relative="1" as="geometry" />
        </mxCell>
        <mxCell id="0CsIX5XTWQhmp2Wo3IE3-208" value="" style="group" vertex="1" connectable="0" parent="1">
          <mxGeometry x="-363" y="563" width="128" height="73" as="geometry" />
        </mxCell>
        <mxCell id="0CsIX5XTWQhmp2Wo3IE3-209" value="" style="rhombus;whiteSpace=wrap;html=1;fillColor=none;" vertex="1" parent="0CsIX5XTWQhmp2Wo3IE3-208">
          <mxGeometry y="14" width="96" height="50" as="geometry" />
        </mxCell>
        <mxCell id="0CsIX5XTWQhmp2Wo3IE3-210" value="buys" style="shape=rhombus;perimeter=rhombusPerimeter;whiteSpace=wrap;html=1;align=center;" vertex="1" parent="0CsIX5XTWQhmp2Wo3IE3-208">
          <mxGeometry x="4" y="16" width="88" height="46" as="geometry" />
        </mxCell>
        <mxCell id="0CsIX5XTWQhmp2Wo3IE3-211" value="" style="shape=link;html=1;rounded=0;entryX=0.5;entryY=1;entryDx=0;entryDy=0;exitX=0.5;exitY=0;exitDx=0;exitDy=0;" edge="1" parent="1" source="0CsIX5XTWQhmp2Wo3IE3-210" target="0CsIX5XTWQhmp2Wo3IE3-198">
          <mxGeometry width="100" relative="1" as="geometry">
            <mxPoint x="-305" y="496" as="sourcePoint" />
            <mxPoint x="-305" y="438" as="targetPoint" />
          </mxGeometry>
        </mxCell>
        <mxCell id="0CsIX5XTWQhmp2Wo3IE3-212" style="edgeStyle=orthogonalEdgeStyle;rounded=0;orthogonalLoop=1;jettySize=auto;html=1;entryX=1;entryY=0.794;entryDx=0;entryDy=0;entryPerimeter=0;" edge="1" parent="1" source="0CsIX5XTWQhmp2Wo3IE3-209" target="0CsIX5XTWQhmp2Wo3IE3-124">
          <mxGeometry relative="1" as="geometry" />
        </mxCell>
      </root>
    </mxGraphModel>
  </diagram>
</mxfile>
